<?xml version="1.0" encoding="UTF-8"?>
<!DOCTYPE svg PUBLIC "-//W3C//DTD SVG 1.1//EN" "http://www.w3.org/Graphics/SVG/1.1/DTD/svg11.dtd">
<!-- Creator: CorelDRAW 2019 (64 Bit) -->
<svg xmlns="http://www.w3.org/2000/svg" xml:space="preserve" width="132.292mm" height="66.1458mm" version="1.1" style="shape-rendering:geometricPrecision; text-rendering:geometricPrecision; image-rendering:optimizeQuality; fill-rule:evenodd; clip-rule:evenodd"
viewBox="0 0 132291.6 66145.8"
 xmlns:xlink="http://www.w3.org/1999/xlink"
 xmlns:xodm="http://www.corel.com/coreldraw/odm/2003">
 <defs>
  <style type="text/css">
   <![CDATA[
    .fil1 {fill:#289DB9}
    .fil0 {fill:white}
    .fil2 {fill:white;fill-rule:nonzero}
   ]]>
  </style>
 </defs>
 <g id="Camada_x0020_1">
  <metadata id="CorelCorpID_0Corel-Layer"/>
  <g id="white">
   <path class="fil0" d="M56780.5 34275.1l4908.7 0c553.4,0 856.8,452.3 674.7,1005.7l-2487.7 7561.7c-182,553.4 -783.3,1005.7 -1336.4,1005.7l-4909.1 0c-553.3,0 -856.7,-452.3 -674.6,-1005.7l2487.6 -7561.7c182.1,-553.4 783.4,-1005.7 1336.8,-1005.7z"/>
   <path class="fil1" d="M60598.8 22976.1c-405.2,823.9 -5033,9461.3 -4288.8,9508.4 8954.7,569.9 6134.2,1328.8 10464.8,10356.9 251.6,524.7 783.4,1005.7 1336.5,1005.7l4909 0c553.4,0 926.3,-480.4 674.7,-1005.7l-9183.9 -19146.6c-1435.9,-2994.2 -3467.1,-1623.8 -3912.3,-718.7z"/>
   <path class="fil2" d="M6507.6 32761.1c710.5,0 1380.2,136.9 2009.1,410.5 628.9,273.6 1176.1,645.7 1641.8,1116.1 465.6,470.5 832.9,1020.1 1101.7,1649 268.8,628.9 403.2,1298.6 403.2,2009.1 0,710.4 -134.4,1380.1 -403.2,2009 -268.8,628.9 -636.1,1176.1 -1101.7,1641.8 -465.7,465.6 -1012.9,832.9 -1641.8,1101.7 -628.9,268.8 -1298.6,403.3 -2009.1,403.3 -422.4,0 -830.5,-48 -1224.1,-144.1 -393.7,-96 -763.3,-230.4 -1108.9,-403.2l0 1728.2 -2851.6 0 0 -6336.7c0,-710.5 134.4,-1380.2 403.3,-2009.1 268.8,-628.9 638.5,-1178.5 1108.9,-1649 470.5,-470.4 1020.1,-842.5 1649,-1116.1 628.9,-273.6 1303.4,-410.5 2023.4,-410.5zm0 7517.7c316.9,0 614.5,-62.4 892.9,-187.2 278.5,-124.8 523.3,-292.8 734.5,-504.1 211.3,-211.2 376.9,-458.4 496.9,-741.6 120,-283.3 180,-583.3 180,-900.1 0,-326.5 -60,-631.3 -180,-914.6 -120,-283.2 -285.6,-530.4 -496.9,-741.6 -211.2,-211.3 -456,-376.9 -734.5,-496.9 -278.4,-120 -576,-180 -892.9,-180 -326.4,0 -631.2,60 -914.5,180 -283.2,120 -530.4,285.6 -741.7,496.9 -211.2,211.2 -376.8,458.4 -496.8,741.6 -120,283.3 -180,588.1 -180,914.6 0,316.8 60,616.8 180,900.1 120,283.2 285.6,530.4 496.8,741.6 211.3,211.3 458.5,379.3 741.7,504.1 283.3,124.8 588.1,187.2 914.5,187.2zm11939.1 -4608.5c-86.4,-28.8 -177.6,-45.6 -273.6,-50.4 -96.1,-4.8 -196.9,-7.2 -302.5,-7.2 -412.8,0 -801.7,79.2 -1166.5,237.6 -364.9,158.4 -684.1,374.4 -957.7,648.1 -273.7,273.6 -492.1,595.3 -655.3,964.9 -163.2,369.6 -244.8,760.9 -244.8,1173.7l0 5645.5 -2822.8 0 0 -5645.5c0,-816.1 153.6,-1579.4 460.9,-2289.8 307.2,-710.5 724.9,-1332.2 1252.9,-1865.1 528.1,-532.8 1147.4,-952.9 1857.8,-1260.1 710.5,-307.2 1469,-460.9 2275.5,-460.9 489.7,0 967.3,60 1433,180.1 465.6,120 909.7,290.4 1332.1,511.2l-2189 2217.9zm6207.1 -2909.2c796.9,0 1545.8,151.3 2246.8,453.7 700.8,302.4 1310.5,715.3 1829,1238.5 518.4,523.3 928.9,1135.4 1231.3,1836.3 302.5,700.8 453.7,1444.9 453.7,2232.2l0 5760.7 -2851.6 0 0 -5760.7c0,-393.6 -76.8,-765.7 -230.4,-1116.1 -153.6,-350.5 -360,-655.3 -619.3,-914.5 -259.3,-259.3 -566.5,-465.7 -921.8,-619.3 -355.2,-153.6 -734.5,-230.4 -1137.7,-230.4 -393.7,0 -765.7,76.8 -1116.1,230.4 -350.5,153.6 -655.3,360 -914.6,619.3 -259.2,259.2 -465.6,564 -619.2,914.5 -153.6,350.4 -230.5,722.5 -230.5,1116.1 0,393.7 76.9,765.7 230.5,1116.2 153.6,350.4 360,655.2 619.2,914.5 259.3,259.2 564.1,465.6 914.6,619.2 350.4,153.7 722.4,230.5 1116.1,230.5l2880.4 0 -2880.4 2880.3c-796.9,-9.6 -1543.4,-165.6 -2239.5,-468.1 -696.1,-302.4 -1303.3,-712.8 -1821.8,-1231.3 -518.5,-518.5 -926.5,-1125.7 -1224.1,-1821.8 -297.7,-696.1 -446.5,-1442.6 -446.5,-2239.5 0,-787.3 148.8,-1531.4 446.5,-2232.2 297.6,-700.9 705.6,-1313 1224.1,-1836.3 518.5,-523.2 1125.7,-936.1 1821.8,-1238.5 696.1,-302.4 1442.6,-453.7 2239.5,-453.7zm12183.9 2851.6l-1468.9 0 0 8669.8 -2851.6 0 0 -8669.8 -2765.1 0 0 -2851.6 9937.2 0 -2851.6 2851.6zm4234.2 -2851.6l0 11521.4 -2851.6 0 0 -8698.6 2851.6 -2822.8zm6279.1 11521.4c-796.9,0 -1543.4,-151.2 -2239.5,-453.7 -696,-302.4 -1305.7,-715.2 -1829,-1238.5 -523.2,-523.3 -936.1,-1132.9 -1238.5,-1829 -302.5,-696.1 -453.7,-1442.6 -453.7,-2239.5 0,-796.9 151.2,-1548.2 453.7,-2253.8 302.4,-705.7 715.3,-1320.2 1238.5,-1843.5 523.3,-523.2 1133,-936.1 1829,-1238.5 696.1,-302.4 1442.6,-453.7 2239.5,-453.7 777.7,0 1517,146.5 2217.9,439.3 700.8,292.8 1324.9,712.9 1872.2,1260.1l-2016.3 2016.3c-278.4,-278.5 -595.2,-487.3 -950.5,-626.5 -355.2,-139.2 -729.7,-208.8 -1123.3,-208.8 -393.6,0 -768.1,76.8 -1123.3,230.4 -355.3,153.6 -664.9,360 -928.9,619.3 -264.1,259.2 -472.9,566.4 -626.5,921.7 -153.6,355.2 -230.4,734.5 -230.4,1137.7 0,403.3 76.8,782.5 230.4,1137.8 153.6,355.2 362.4,662.4 626.5,921.7 264,259.2 573.6,465.6 928.9,619.2 355.2,153.7 729.7,230.5 1123.3,230.5 393.6,0 768.1,-74.4 1123.3,-223.3 355.3,-148.8 672.1,-362.4 950.5,-640.8l2016.3 2016.2c-547.3,547.3 -1171.4,967.3 -1872.2,1260.1 -700.9,292.9 -1440.2,439.3 -2217.9,439.3z"/>
   <path class="fil2" d="M85444.6 31707.7c576,0 1118.5,110.5 1627.4,331.3 508.8,220.8 950.5,518.4 1324.9,892.9 374.5,374.4 672.1,813.7 892.9,1317.7 220.8,504.1 331.3,1039.4 331.3,1605.8l0 7373.7 -2851.6 0 0 -7373.7c0,-364.8 -129.6,-672.1 -388.8,-921.7 -259.3,-249.6 -571.3,-374.4 -936.1,-374.4 -364.9,0 -676.9,124.8 -936.1,374.4 -259.3,249.6 -388.9,556.9 -388.9,921.7l0 7373.7 -2822.7 0 0 -7373.7c0,-364.8 -129.6,-672.1 -388.9,-921.7 -259.2,-249.6 -571.2,-374.4 -936.1,-374.4 -364.8,0 -676.9,124.8 -936.1,374.4 -259.2,249.6 -388.8,556.9 -388.8,921.7l0 7373.7 -2822.9 0 0 -7373.7c0,-566.4 110.4,-1101.7 331.3,-1605.8 220.8,-504 518.4,-943.3 892.9,-1317.7 374.4,-374.5 813.7,-672.1 1317.8,-892.9 504.1,-220.8 1039.4,-331.3 1605.8,-331.3 537.7,0 1036.9,93.7 1497.8,280.9 460.9,187.2 873.7,439.2 1238.5,756.1 374.5,-316.9 794.5,-568.9 1260.2,-756.1 465.6,-187.2 957.7,-280.9 1476.2,-280.9zm8266.6 4291.7l4608.5 0c-249.6,-451.2 -597.7,-813.6 -1044.1,-1087.3 -446.5,-273.6 -943.3,-410.4 -1490.6,-410.4 -403.3,0 -782.5,76.8 -1137.7,230.4 -355.3,153.6 -667.3,364.8 -936.1,633.7 -268.9,268.8 -480.1,580.8 -633.7,936.1 -153.6,355.2 -230.4,734.5 -230.4,1137.7 0,403.3 76.8,782.5 230.4,1137.8 153.6,355.2 364.8,667.2 633.7,936.1 268.8,268.8 580.8,480 936.1,633.6 355.2,153.7 734.4,230.5 1137.7,230.5l4464.5 0 -2880.3 2851.5 -1584.2 0c-796.9,0 -1548.2,-151.2 -2253.9,-453.7 -705.7,-302.4 -1320.1,-715.2 -1843.4,-1238.5 -523.2,-523.3 -936.1,-1137.7 -1238.5,-1843.4 -302.5,-705.7 -453.7,-1457 -453.7,-2253.9 0,-796.9 151.2,-1548.2 453.7,-2253.8 302.4,-705.7 715.3,-1320.2 1238.5,-1843.5 523.3,-523.2 1137.7,-936.1 1843.4,-1238.5 705.7,-302.4 1457,-453.7 2253.9,-453.7 796.9,0 1548.2,151.3 2253.9,453.7 705.6,302.4 1320.1,715.3 1843.4,1238.5 523.2,523.3 936.1,1137.8 1238.5,1843.5 302.5,705.6 453.7,1456.9 453.7,2253.8l0 1411.4 -4983 0 -2880.3 -2851.6zm18895 7229.7l-2822.8 0 0 -6192.7c0,-345.7 -64.8,-669.7 -194.4,-972.1 -129.6,-302.5 -307.2,-564.1 -532.8,-784.9 -225.7,-220.9 -489.7,-396.1 -792.1,-525.7 -302.5,-129.6 -621.7,-194.4 -957.7,-194.4 -345.7,0 -669.7,64.8 -972.2,194.4 -302.4,129.6 -568.8,304.8 -799.3,525.7 -230.4,220.8 -410.4,482.4 -540,784.9 -129.6,302.4 -194.4,626.4 -194.4,972.1l0 6192.7 -2822.8 0 0 -6192.7c0,-729.7 139.2,-1418.6 417.7,-2066.7 278.4,-648.1 660.1,-1214.5 1144.9,-1699.4 484.9,-484.8 1048.9,-866.5 1692.2,-1144.9 643.3,-278.4 1334.6,-417.7 2073.9,-417.7 729.6,0 1418.5,139.3 2066.6,417.7 648.1,278.4 1209.7,660.1 1685,1144.9 475.3,484.9 852.1,1051.3 1130.5,1699.4 278.5,648.1 417.7,1337 417.7,2066.7l0 6192.7zm6480.7 -8669.8l-1468.9 0 0 8669.8 -2851.6 0 0 -8669.8 -2765.1 0 0 -2851.6 9937.2 0 -2851.6 2851.6zm4018.2 1440.1l4608.6 0c-249.6,-451.2 -597.7,-813.6 -1044.1,-1087.3 -446.5,-273.6 -943.3,-410.4 -1490.6,-410.4 -403.4,0 -782.6,76.8 -1137.8,230.4 -355.3,153.6 -667.3,364.8 -936.1,633.7 -268.9,268.8 -480.1,580.8 -633.7,936.1 -153.6,355.2 -230.4,734.5 -230.4,1137.7 0,403.3 76.8,782.5 230.4,1137.8 153.6,355.2 364.8,667.2 633.7,936.1 268.8,268.8 580.8,480 936.1,633.6 355.2,153.7 734.4,230.5 1137.8,230.5l4464.5 0 -2880.3 2851.5 -1584.2 0c-797,0 -1548.3,-151.2 -2254,-453.7 -705.7,-302.4 -1320.1,-715.2 -1843.4,-1238.5 -523.2,-523.3 -936.1,-1137.7 -1238.5,-1843.4 -302.5,-705.7 -453.7,-1457 -453.7,-2253.9 0,-796.9 151.2,-1548.2 453.7,-2253.8 302.4,-705.7 715.3,-1320.2 1238.5,-1843.5 523.3,-523.2 1137.7,-936.1 1843.4,-1238.5 705.7,-302.4 1457,-453.7 2254,-453.7 796.9,0 1548.2,151.3 2253.9,453.7 705.6,302.4 1320.1,715.3 1843.4,1238.5 523.2,523.3 936.1,1137.8 1238.5,1843.5 302.5,705.6 453.7,1456.9 453.7,2253.8l0 1411.4 -4983 0 -2880.4 -2851.6z"/>
  </g>
 </g>
</svg>
