<?xml version="1.0" encoding="UTF-8"?>
<!DOCTYPE svg PUBLIC "-//W3C//DTD SVG 1.1//EN" "http://www.w3.org/Graphics/SVG/1.1/DTD/svg11.dtd">
<!-- Creator: CorelDRAW 2019 (64 Bit) -->
<svg xmlns="http://www.w3.org/2000/svg" xml:space="preserve" width="132.292mm" height="66.1458mm" version="1.1" style="shape-rendering:geometricPrecision; text-rendering:geometricPrecision; image-rendering:optimizeQuality; fill-rule:evenodd; clip-rule:evenodd"
viewBox="0 0 132291.6 66145.8"
 xmlns:xlink="http://www.w3.org/1999/xlink"
 xmlns:xodm="http://www.corel.com/coreldraw/odm/2003">
 <defs>
  <style type="text/css">
   <![CDATA[
    .fil1 {fill:black}
    .fil2 {fill:#289DB9}
    .fil0 {fill:black;fill-rule:nonzero}
   ]]>
  </style>
 </defs>
 <g id="Camada_x0020_1">
  <metadata id="CorelCorpID_0Corel-Layer"/>
  <g id="black">
   <path class="fil0" d="M6507.7 32761.4c710.4,0 1380.1,136.8 2009,410.4 628.8,273.7 1176.1,645.7 1641.7,1116.2 465.7,470.4 832.9,1020.1 1101.8,1648.9 268.8,628.9 403.2,1298.6 403.2,2009 0,710.5 -134.4,1380.2 -403.2,2009 -268.9,628.9 -636.1,1176.2 -1101.8,1641.8 -465.6,465.7 -1012.9,832.9 -1641.7,1101.7 -628.9,268.9 -1298.6,403.3 -2009,403.3 -422.5,0 -830.5,-48 -1224.2,-144 -393.6,-96 -763.2,-230.5 -1108.9,-403.3l0 1728.2 -2851.6 0 0 -6336.7c0,-710.4 134.4,-1380.1 403.3,-2009 268.8,-628.8 638.4,-1178.5 1108.9,-1648.9 470.5,-470.5 1020.2,-842.5 1649.1,-1116.2 628.8,-273.6 1303.3,-410.4 2023.4,-410.4zm0 7517.6c316.8,0 614.4,-62.4 892.9,-187.2 278.4,-124.8 523.2,-292.9 734.4,-504.1 211.3,-211.2 376.9,-458.4 496.9,-741.7 120,-283.2 180,-583.2 180,-900.1 0,-326.4 -60,-631.2 -180,-914.5 -120,-283.2 -285.6,-530.4 -496.9,-741.6 -211.2,-211.3 -456,-376.9 -734.4,-496.9 -278.5,-120 -576.1,-180 -892.9,-180 -326.5,0 -631.3,60 -914.5,180 -283.3,120 -530.5,285.6 -741.7,496.9 -211.2,211.2 -376.8,458.4 -496.9,741.6 -120,283.3 -180,588.1 -180,914.5 0,316.9 60,616.9 180,900.1 120.1,283.3 285.7,530.5 496.9,741.7 211.2,211.2 458.4,379.3 741.7,504.1 283.2,124.8 588,187.2 914.5,187.2zm11938.8 -4608.5c-86.4,-28.8 -177.6,-45.6 -273.6,-50.4 -96,-4.8 -196.9,-7.2 -302.5,-7.2 -412.8,0 -801.7,79.2 -1166.5,237.6 -364.8,158.4 -684.1,374.5 -957.7,648.1 -273.6,273.6 -492,595.3 -655.3,964.9 -163.2,369.6 -244.8,760.9 -244.8,1173.7l0 5645.4 -2822.7 0 0 -5645.4c0,-816.1 153.6,-1579.4 460.9,-2289.8 307.2,-710.5 724.8,-1332.2 1252.9,-1865 528.1,-532.9 1147.3,-952.9 1857.8,-1260.2 710.5,-307.2 1468.9,-460.8 2275.4,-460.8 489.7,0 967.3,60 1433,180 465.6,120 909.7,290.4 1332.1,511.3l-2189 2217.8zm6207 -2909.1c796.9,0 1545.8,151.2 2246.6,453.6 700.9,302.5 1310.6,715.3 1829,1238.6 518.5,523.2 928.9,1135.3 1231.4,1836.2 302.4,700.8 453.6,1444.9 453.6,2232.2l0 5760.6 -2851.5 0 0 -5760.6c0,-393.6 -76.8,-765.7 -230.4,-1116.1 -153.6,-350.5 -360.1,-655.3 -619.3,-914.5 -259.2,-259.2 -566.4,-465.7 -921.7,-619.3 -355.2,-153.6 -734.5,-230.4 -1137.7,-230.4 -393.6,0 -765.7,76.8 -1116.1,230.4 -350.4,153.6 -655.3,360.1 -914.5,619.3 -259.2,259.2 -465.7,564 -619.3,914.5 -153.6,350.4 -230.4,722.5 -230.4,1116.1 0,393.6 76.8,765.7 230.4,1116.1 153.6,350.5 360.1,655.3 619.3,914.5 259.2,259.2 564.1,465.7 914.5,619.3 350.4,153.6 722.5,230.4 1116.1,230.4l2880.3 0 -2880.3 2880.3c-796.9,-9.6 -1543.4,-165.6 -2239.4,-468 -696.1,-302.5 -1303.4,-712.9 -1821.8,-1231.4 -518.5,-518.4 -926.5,-1125.7 -1224.1,-1821.8 -297.7,-696 -446.5,-1442.5 -446.5,-2239.4 0,-787.3 148.8,-1531.4 446.5,-2232.2 297.6,-700.9 705.6,-1313 1224.1,-1836.2 518.4,-523.3 1125.7,-936.1 1821.8,-1238.6 696,-302.4 1442.5,-453.6 2239.4,-453.6zm12183.8 2851.5l-1469 0 0 8669.7 -2851.5 0 0 -8669.7 -2765.2 0 0 -2851.5 9937.1 0 -2851.4 2851.5zm4234 -2851.5l0 11521.2 -2851.5 0 0 -8698.5 2851.5 -2822.7zm6279.1 11521.2c-796.9,0 -1543.3,-151.2 -2239.4,-453.6 -696.1,-302.5 -1305.7,-715.3 -1829,-1238.6 -523.3,-523.2 -936.1,-1132.9 -1238.5,-1829 -302.5,-696 -453.7,-1442.5 -453.7,-2239.4 0,-796.9 151.2,-1548.2 453.7,-2253.8 302.4,-705.7 715.2,-1320.2 1238.5,-1843.4 523.3,-523.3 1132.9,-936.1 1829,-1238.6 696.1,-302.4 1442.5,-453.6 2239.4,-453.6 777.7,0 1517,146.4 2217.9,439.2 700.8,292.9 1324.9,712.9 1872.1,1260.2l-2016.2 2016.2c-278.4,-278.4 -595.2,-487.3 -950.5,-626.5 -355.2,-139.2 -729.6,-208.8 -1123.3,-208.8 -393.6,0 -768.1,76.8 -1123.3,230.4 -355.2,153.6 -664.9,360.1 -928.9,619.3 -264,259.2 -472.8,566.4 -626.5,921.7 -153.6,355.2 -230.4,734.5 -230.4,1137.7 0,403.2 76.8,782.5 230.4,1137.7 153.7,355.3 362.5,662.5 626.5,921.7 264,259.2 573.7,465.7 928.9,619.3 355.2,153.6 729.7,230.4 1123.3,230.4 393.7,0 768.1,-74.4 1123.3,-223.2 355.3,-148.8 672.1,-362.5 950.5,-640.9l2016.2 2016.2c-547.2,547.3 -1171.3,967.3 -1872.1,1260.2 -700.9,292.8 -1440.2,439.2 -2217.9,439.2z"/>
   <path class="fil0" d="M85445.2 31708c576.1,0 1118.5,110.4 1627.4,331.2 508.9,220.9 950.5,518.5 1324.9,892.9 374.5,374.5 672.1,813.7 892.9,1317.8 220.9,504 331.3,1039.3 331.3,1605.7l0 7373.6 -2851.5 0 0 -7373.6c0,-364.8 -129.6,-672 -388.9,-921.7 -259.2,-249.6 -571.2,-374.4 -936.1,-374.4 -364.8,0 -676.8,124.8 -936.1,374.4 -259.2,249.7 -388.8,556.9 -388.8,921.7l0 7373.6 -2822.7 0 0 -7373.6c0,-364.8 -129.6,-672 -388.8,-921.7 -259.3,-249.6 -571.3,-374.4 -936.1,-374.4 -364.9,0 -676.9,124.8 -936.1,374.4 -259.3,249.7 -388.9,556.9 -388.9,921.7l0 7373.6 -2822.8 0 0 -7373.6c0,-566.4 110.4,-1101.7 331.3,-1605.7 220.8,-504.1 518.4,-943.3 892.9,-1317.8 374.4,-374.4 813.6,-672 1317.8,-892.9 504,-220.8 1039.3,-331.2 1605.8,-331.2 537.6,0 1036.9,93.6 1497.7,280.8 460.9,187.2 873.7,439.3 1238.5,756.1 374.5,-316.8 794.5,-568.9 1260.2,-756.1 465.6,-187.2 957.7,-280.8 1476.1,-280.8zm8266.5 4291.6l4608.5 0c-249.6,-451.2 -597.7,-813.6 -1044.1,-1087.3 -446.5,-273.6 -943.3,-410.4 -1490.6,-410.4 -403.2,0 -782.5,76.8 -1137.7,230.4 -355.2,153.6 -667.3,364.9 -936.1,633.7 -268.8,268.8 -480.1,580.8 -633.7,936.1 -153.6,355.2 -230.4,734.5 -230.4,1137.7 0,403.2 76.8,782.5 230.4,1137.7 153.6,355.3 364.9,667.3 633.7,936.1 268.8,268.8 580.9,480.1 936.1,633.7 355.2,153.6 734.5,230.4 1137.7,230.4l4464.5 0 -2880.3 2851.5 -1584.2 0c-796.9,0 -1548.1,-151.2 -2253.8,-453.6 -705.7,-302.5 -1320.2,-715.3 -1843.4,-1238.6 -523.3,-523.2 -936.1,-1137.7 -1238.5,-1843.4 -302.5,-705.6 -453.7,-1456.9 -453.7,-2253.8 0,-796.9 151.2,-1548.2 453.7,-2253.8 302.4,-705.7 715.2,-1320.2 1238.5,-1843.4 523.2,-523.3 1137.7,-936.1 1843.4,-1238.6 705.7,-302.4 1456.9,-453.6 2253.8,-453.6 796.9,0 1548.2,151.2 2253.8,453.6 705.7,302.5 1320.2,715.3 1843.4,1238.6 523.3,523.2 936.1,1137.7 1238.6,1843.4 302.4,705.6 453.6,1456.9 453.6,2253.8l0 1411.3 -4982.9 0 -2880.3 -2851.5zm18894.8 7229.6l-2822.7 0 0 -6192.6c0,-345.7 -64.8,-669.7 -194.4,-972.1 -129.6,-302.5 -307.2,-564.1 -532.8,-784.9 -225.7,-220.9 -489.7,-396.1 -792.1,-525.7 -302.5,-129.6 -621.7,-194.4 -957.7,-194.4 -345.7,0 -669.7,64.8 -972.1,194.4 -302.6,129.6 -569,304.8 -799.4,525.7 -230.4,220.8 -410.4,482.4 -540.1,784.9 -129.6,302.4 -194.4,626.4 -194.4,972.1l0 6192.6 -2822.7 0 0 -6192.6c0,-729.7 139.2,-1418.6 417.7,-2066.7 278.4,-648 660,-1214.5 1144.9,-1699.3 484.8,-484.9 1048.9,-866.5 1692.2,-1145 643.2,-278.4 1334.6,-417.6 2073.9,-417.6 729.7,0 1418.5,139.2 2066.6,417.6 648.1,278.5 1209.7,660.1 1685,1145 475.2,484.8 852.1,1051.3 1130.5,1699.3 278.4,648.1 417.6,1337 417.6,2066.7l0 6192.6zm6480.8 -8669.7l-1469 0 0 8669.7 -2851.5 0 0 -8669.7 -2765.1 0 0 -2851.5 9937 0 -2851.4 2851.5zm4018 1440.1l4608.5 0c-249.6,-451.2 -597.7,-813.6 -1044.1,-1087.3 -446.5,-273.6 -943.3,-410.4 -1490.6,-410.4 -403.2,0 -782.5,76.8 -1137.7,230.4 -355.2,153.6 -667.3,364.9 -936.1,633.7 -268.8,268.8 -480.1,580.8 -633.7,936.1 -153.6,355.2 -230.4,734.5 -230.4,1137.7 0,403.2 76.8,782.5 230.4,1137.7 153.6,355.3 364.9,667.3 633.7,936.1 268.8,268.8 580.9,480.1 936.1,633.7 355.2,153.6 734.5,230.4 1137.7,230.4l4464.5 0 -2880.3 2851.5 -1584.2 0c-796.9,0 -1548.1,-151.2 -2253.8,-453.6 -705.7,-302.5 -1320.2,-715.3 -1843.4,-1238.6 -523.3,-523.2 -936.1,-1137.7 -1238.5,-1843.4 -302.5,-705.6 -453.7,-1456.9 -453.7,-2253.8 0,-796.9 151.2,-1548.2 453.7,-2253.8 302.4,-705.7 715.2,-1320.2 1238.5,-1843.4 523.2,-523.3 1137.7,-936.1 1843.4,-1238.6 705.7,-302.4 1456.9,-453.6 2253.8,-453.6 796.9,0 1548.2,151.2 2253.8,453.6 705.7,302.5 1320.2,715.3 1843.4,1238.6 523.3,523.2 936.1,1137.7 1238.6,1843.4 302.4,705.6 453.6,1456.9 453.6,2253.8l0 1411.3 -4982.9 0 -2880.3 -2851.5z"/>
   <g>
    <path class="fil1" d="M56781.1 34275.1l4908.8 0c553.4,0 856.8,452.3 674.7,1005.7l-2487.7 7561.8c-182.1,553.3 -783.4,1005.7 -1336.5,1005.7l-4909.1 0c-553.4,0 -856.8,-452.4 -674.7,-1005.7l2487.7 -7561.8c182.1,-553.4 783.4,-1005.7 1336.8,-1005.7z"/>
    <path class="fil2" d="M60599.5 22976c-405.3,823.9 -5033.1,9461.4 -4288.9,9508.5 8954.8,569.9 6134.2,1328.8 10464.9,10357 251.6,524.7 783.4,1005.7 1336.5,1005.7l4909.1 0c553.4,0 926.3,-480.5 674.7,-1005.7l-9184 -19146.8c-1436,-2994.3 -3467.1,-1623.8 -3912.3,-718.7z"/>
   </g>
  </g>
 </g>
</svg>
