<svg width="636" height="110" viewBox="0 0 636 110" fill="none" xmlns="http://www.w3.org/2000/svg">
<path fill-rule="evenodd" clip-rule="evenodd" d="M272.058 60.8882H296.138C298.853 60.8882 300.342 63.107 299.448 65.8218L287.244 102.917C286.352 105.632 283.402 107.851 280.688 107.851H256.606C253.892 107.851 252.403 105.632 253.297 102.917L265.5 65.8218C266.393 63.107 269.343 60.8882 272.058 60.8882Z" fill="white"/>
<path fill-rule="evenodd" clip-rule="evenodd" d="M290.79 5.4589C288.802 9.50069 266.099 51.873 269.75 52.1041C313.679 54.8998 299.843 58.6227 321.087 102.912C322.321 105.486 324.93 107.845 327.644 107.845H351.726C354.44 107.845 356.27 105.489 355.035 102.912L309.982 8.98462C302.938 -5.70397 292.974 1.01877 290.79 5.4589Z" fill="#289DB9"/>
<path d="M25.434 53.4613C28.9195 53.4613 32.2048 54.1329 35.29 55.4751C38.3752 56.8173 41.0596 58.6427 43.3441 60.9504C45.6282 63.2585 47.4301 65.9546 48.7487 69.0398C50.0674 72.125 50.7267 75.4103 50.7267 78.8958C50.7267 82.3808 50.0674 85.6662 48.7487 88.7513C47.4301 91.8365 45.6282 94.5209 43.3441 96.8055C41.0596 99.0896 38.3752 100.891 35.29 102.21C32.2048 103.529 28.9195 104.189 25.434 104.189C23.3618 104.189 21.3598 103.953 19.4289 103.482C17.4976 103.011 15.6844 102.351 13.989 101.504V109.982H0V78.8958C0 75.4103 0.659324 72.125 1.97846 69.0398C3.29711 65.9546 5.11074 63.2585 7.41837 60.9504C9.72649 58.6427 12.4227 56.8173 15.5078 55.4751C18.593 54.1329 21.9019 53.4613 25.434 53.4613ZM25.434 90.3408C26.9886 90.3408 28.4485 90.0347 29.8143 89.4224C31.1805 88.8102 32.3814 87.9861 33.4175 86.9495C34.4541 85.9134 35.2665 84.7007 35.8551 83.3114C36.4438 81.9216 36.7382 80.45 36.7382 78.8958C36.7382 77.2941 36.4438 75.7989 35.8551 74.4091C35.2665 73.0198 34.4541 71.8071 33.4175 70.771C32.3814 69.7345 31.1805 68.9221 29.8143 68.3334C28.4485 67.7447 26.9886 67.4504 25.434 67.4504C23.8328 67.4504 22.3375 67.7447 20.9478 68.3334C19.5585 68.9221 18.3458 69.7345 17.3092 70.771C16.2731 71.8071 15.4607 73.0198 14.8721 74.4091C14.2834 75.7989 13.989 77.2941 13.989 78.8958C13.989 80.45 14.2834 81.9216 14.8721 83.3114C15.4607 84.7007 16.2731 85.9134 17.3092 86.9495C18.3458 87.9861 19.5585 88.8102 20.9478 89.4224C22.3375 90.0347 23.8328 90.3408 25.434 90.3408ZM84.0034 67.733C83.5796 67.5917 83.1322 67.5092 82.6612 67.4857C82.1898 67.4622 81.6953 67.4504 81.1772 67.4504C79.1522 67.4504 77.2444 67.8389 75.4548 68.616C73.6647 69.393 72.0988 70.4527 70.7566 71.7953C69.4139 73.1375 68.3425 74.7157 67.5419 76.5288C66.7413 78.342 66.341 80.2616 66.341 82.2866V109.982H52.4932V82.2866C52.4932 78.2831 53.2468 74.5386 54.7543 71.0536C56.2613 67.5681 58.3104 64.5183 60.9006 61.904C63.4913 59.2903 66.5294 57.2294 70.0144 55.7224C73.4999 54.2154 77.2208 53.4613 81.1772 53.4613C83.5796 53.4613 85.9225 53.7557 88.2071 54.3449C90.4912 54.9335 92.6698 55.7695 94.7419 56.8526L84.0034 67.733ZM114.453 53.4613C118.363 53.4613 122.037 54.2036 125.476 55.6871C128.913 57.1705 131.904 59.1961 134.448 61.7627C136.991 64.3299 139.005 67.3327 140.488 70.771C141.972 74.2089 142.714 77.8593 142.714 81.7215V109.982H128.725V81.7215C128.725 79.7906 128.348 77.9652 127.595 76.2463C126.841 74.5268 125.829 73.0316 124.557 71.76C123.285 70.488 121.778 69.4754 120.035 68.7219C118.292 67.9684 116.431 67.5917 114.453 67.5917C112.522 67.5917 110.697 67.9684 108.978 68.7219C107.259 69.4754 105.764 70.488 104.491 71.76C103.22 73.0316 102.207 74.5268 101.454 76.2463C100.7 77.9652 100.323 79.7906 100.323 81.7215C100.323 83.6529 100.7 85.4778 101.454 87.1972C102.207 88.9162 103.22 90.4114 104.491 91.6835C105.764 92.955 107.259 93.9675 108.978 94.7211C110.697 95.4751 112.522 95.8518 114.453 95.8518H128.584L114.453 109.982C110.544 109.935 106.882 109.169 103.467 107.685C100.052 106.202 97.0736 104.189 94.53 101.645C91.9864 99.1014 89.9849 96.1226 88.525 92.7078C87.0646 89.2929 86.3346 85.6308 86.3346 81.7215C86.3346 77.8593 87.0646 74.2089 88.525 70.771C89.9849 67.3327 91.9864 64.3299 94.53 61.7627C97.0736 59.1961 100.052 57.1705 103.467 55.6871C106.882 54.2036 110.544 53.4613 114.453 53.4613ZM174.224 67.4504H167.018V109.982H153.029V67.4504H139.464V53.4613H188.213L174.224 67.4504ZM194.995 53.4613V109.982H181.006V67.3091L194.995 53.4613ZM225.799 109.982C221.889 109.982 218.227 109.24 214.812 107.756C211.398 106.272 208.407 104.247 205.84 101.68C203.273 99.1131 201.248 96.1226 199.764 92.7078C198.28 89.2929 197.539 85.6308 197.539 81.7215C197.539 77.8122 198.28 74.1265 199.764 70.6651C201.248 67.2031 203.273 64.1886 205.84 61.6215C208.407 59.0548 211.398 57.0292 214.812 55.5458C218.227 54.0623 221.889 53.3201 225.799 53.3201C229.614 53.3201 233.241 54.0388 236.679 55.4751C240.117 56.9115 243.179 58.9724 245.863 61.6568L235.972 71.5481C234.606 70.1819 233.052 69.1576 231.309 68.4747C229.567 67.7918 227.73 67.4504 225.799 67.4504C223.868 67.4504 222.031 67.8271 220.288 68.5807C218.545 69.3342 217.026 70.3467 215.731 71.6187C214.436 72.8903 213.411 74.3973 212.658 76.1403C211.904 77.8828 211.528 79.7435 211.528 81.7215C211.528 83.7 211.904 85.5602 212.658 87.3032C213.411 89.0457 214.436 90.5527 215.731 91.8248C217.026 93.0963 218.545 94.1088 220.288 94.8623C222.031 95.6163 223.868 95.9931 225.799 95.9931C227.73 95.9931 229.567 95.6281 231.309 94.8977C233.052 94.1677 234.606 93.1198 235.972 91.7541L245.863 101.645C243.179 104.33 240.117 106.39 236.679 107.827C233.241 109.263 229.614 109.982 225.799 109.982Z" fill="white"/>
<path d="M412.674 48.2931C415.499 48.2931 418.161 48.8351 420.657 49.9183C423.153 51.0015 425.32 52.4614 427.157 54.2986C428.994 56.1353 430.454 58.2904 431.537 60.7628C432.62 63.2358 433.162 65.8618 433.162 68.6403V104.813H419.173V68.6403C419.173 66.8508 418.537 65.3432 417.266 64.1188C415.994 62.8943 414.463 62.2821 412.674 62.2821C410.884 62.2821 409.353 62.8943 408.081 64.1188C406.809 65.3432 406.174 66.8508 406.174 68.6403V104.813H392.326V68.6403C392.326 66.8508 391.691 65.3432 390.418 64.1188C389.147 62.8943 387.616 62.2821 385.826 62.2821C384.037 62.2821 382.506 62.8943 381.234 64.1188C379.963 65.3432 379.327 66.8508 379.327 68.6403V104.813H365.479V68.6403C365.479 65.8618 366.02 63.2358 367.104 60.7628C368.187 58.2904 369.647 56.1353 371.484 54.2986C373.321 52.4614 375.476 51.0015 377.949 49.9183C380.422 48.8351 383.048 48.2931 385.826 48.2931C388.464 48.2931 390.913 48.7527 393.174 49.6711C395.435 50.5894 397.46 51.8256 399.25 53.3803C401.087 51.8256 403.147 50.5894 405.432 49.6711C407.716 48.7527 410.13 48.2931 412.674 48.2931ZM453.227 69.3468H475.835C474.61 67.1333 472.903 65.3555 470.713 64.0128C468.522 62.6706 466.085 61.9995 463.4 61.9995C461.422 61.9995 459.562 62.3763 457.819 63.1298C456.076 63.8833 454.546 64.9194 453.227 66.2385C451.908 67.5572 450.872 69.0877 450.118 70.8307C449.365 72.5732 448.988 74.434 448.988 76.4119C448.988 78.3904 449.365 80.2506 450.118 81.9936C450.872 83.7361 451.908 85.2667 453.227 86.5858C454.546 87.9045 456.076 88.9406 457.819 89.6941C459.562 90.4481 461.422 90.8248 463.4 90.8248H485.302L471.172 104.813H463.4C459.491 104.813 455.805 104.072 452.343 102.588C448.881 101.104 445.867 99.0791 443.3 96.512C440.734 93.9448 438.708 90.9308 437.225 87.4688C435.741 84.0069 434.999 80.3213 434.999 76.4119C434.999 72.5026 435.741 68.817 437.225 65.3555C438.708 61.8936 440.734 58.879 443.3 56.3119C445.867 53.7452 448.881 51.7197 452.343 50.2362C455.805 48.7527 459.491 48.0105 463.4 48.0105C467.31 48.0105 470.995 48.7527 474.457 50.2362C477.919 51.7197 480.933 53.7452 483.5 56.3119C486.067 58.879 488.093 61.8936 489.576 65.3555C491.06 68.817 491.802 72.5026 491.802 76.4119V83.3358H467.357L453.227 69.3468ZM545.92 104.813H532.072V74.434C532.072 72.7381 531.754 71.1486 531.118 69.6652C530.483 68.1812 529.611 66.8979 528.505 65.8147C527.397 64.731 526.102 63.8715 524.619 63.2358C523.135 62.6 521.569 62.2821 519.921 62.2821C518.225 62.2821 516.635 62.6 515.151 63.2358C513.668 63.8715 512.361 64.731 511.23 65.8147C510.1 66.8979 509.217 68.1812 508.581 69.6652C507.945 71.1486 507.627 72.7381 507.627 74.434V104.813H493.78V74.434C493.78 70.8543 494.463 67.4748 495.829 64.2954C497.195 61.116 499.067 58.3375 501.445 55.9587C503.824 53.5804 506.591 51.7079 509.747 50.3422C512.903 48.9764 516.294 48.2931 519.921 48.2931C523.5 48.2931 526.879 48.9764 530.059 50.3422C533.238 51.7079 535.993 53.5804 538.325 55.9587C540.656 58.3375 542.505 61.116 543.871 64.2954C545.237 67.4748 545.92 70.8543 545.92 74.434V104.813ZM577.712 62.2821H570.506V104.813H556.517V62.2821H542.952V48.2931H591.701L577.712 62.2821ZM597.424 69.3468H620.032C618.808 67.1333 617.1 65.3555 614.91 64.0128C612.72 62.6706 610.283 61.9995 607.598 61.9995C605.619 61.9995 603.759 62.3763 602.016 63.1298C600.273 63.8833 598.743 64.9194 597.424 66.2385C596.105 67.5572 595.069 69.0877 594.315 70.8307C593.562 72.5732 593.185 74.434 593.185 76.4119C593.185 78.3904 593.562 80.2506 594.315 81.9936C595.069 83.7361 596.105 85.2667 597.424 86.5858C598.743 87.9045 600.273 88.9406 602.016 89.6941C603.759 90.4481 605.619 90.8248 607.598 90.8248H629.499L615.369 104.813H607.598C603.688 104.813 600.002 104.072 596.54 102.588C593.079 101.104 590.064 99.0791 587.497 96.512C584.931 93.9448 582.905 90.9308 581.422 87.4688C579.938 84.0069 579.196 80.3213 579.196 76.4119C579.196 72.5026 579.938 68.817 581.422 65.3555C582.905 61.8936 584.931 58.879 587.497 56.3119C590.064 53.7452 593.079 51.7197 596.54 50.2362C600.002 48.7527 603.688 48.0105 607.598 48.0105C611.507 48.0105 615.193 48.7527 618.655 50.2362C622.116 51.7197 625.131 53.7452 627.698 56.3119C630.265 58.879 632.29 61.8936 633.774 65.3555C635.258 68.817 635.999 72.5026 635.999 76.4119V83.3358H611.554L597.424 69.3468Z" fill="white"/>
</svg>
