<svg width="602" height="105" viewBox="0 0 602 105" fill="none" xmlns="http://www.w3.org/2000/svg">
<path d="M24.0748 50.6049C27.3735 50.6049 30.4832 51.2402 33.4035 52.5106C36.3232 53.7815 38.8646 55.5089 41.0266 57.6936C43.189 59.8779 44.8941 62.4304 46.1427 65.3502C47.3909 68.2704 48.0149 71.3801 48.0149 74.6788C48.0149 77.978 47.3909 81.0877 46.1427 84.0075C44.8941 86.9278 43.189 89.4691 41.0266 91.6311C38.8646 93.7936 36.3232 95.4986 33.4035 96.7468C30.4832 97.9954 27.3735 98.6195 24.0748 98.6195C22.1129 98.6195 20.2184 98.3966 18.3903 97.9508C16.5627 97.5051 14.8464 96.8805 13.2412 96.0781V104.103H0V74.6788C0 71.3801 0.624077 68.2704 1.8727 65.3502C3.12085 62.4304 4.83706 59.8779 7.0218 57.6936C9.20653 55.5089 11.759 53.7815 14.6793 52.5106C17.5991 51.2402 20.7311 50.6049 24.0748 50.6049ZM24.0748 85.5125C25.5458 85.5125 26.9277 85.2227 28.2209 84.6432C29.5136 84.0637 30.6504 83.2831 31.6311 82.3024C32.6122 81.3218 33.3812 80.1739 33.9384 78.8584C34.4956 77.5434 34.7742 76.1503 34.7742 74.6788C34.7742 73.1632 34.4956 71.7479 33.9384 70.4324C33.3812 69.1174 32.6122 67.9695 31.6311 66.9888C30.6504 66.0077 29.5136 65.2387 28.2209 64.6815C26.9277 64.1243 25.5458 63.8457 24.0748 63.8457C22.5587 63.8457 21.1434 64.1243 19.8284 64.6815C18.5129 65.2387 17.365 66.0077 16.3843 66.9888C15.4037 67.9695 14.6347 69.1174 14.077 70.4324C13.5198 71.7479 13.2412 73.1632 13.2412 74.6788C13.2412 76.1503 13.5198 77.5434 14.077 78.8584C14.6347 80.1739 15.4037 81.3218 16.3843 82.3024C17.365 83.2831 18.5129 84.0637 19.8284 84.6432C21.1434 85.2227 22.5587 85.5125 24.0748 85.5125ZM79.5118 64.1132C79.1106 63.9794 78.6871 63.9014 78.2413 63.8791C77.7956 63.8568 77.3271 63.8457 76.8367 63.8457C74.9199 63.8457 73.1141 64.2135 71.4202 64.949C69.7262 65.6845 68.2436 66.688 66.9731 67.9584C65.7027 69.2288 64.6886 70.7226 63.9303 72.4389C63.1725 74.1551 62.7936 75.972 62.7936 77.8889V104.103H49.6866V77.8889C49.6866 74.0993 50.3998 70.555 51.8267 67.2563C53.2532 63.9571 55.1923 61.0703 57.6445 58.5963C60.0967 56.1218 62.9719 54.1715 66.271 52.7446C69.5702 51.3182 73.0918 50.6049 76.8367 50.6049C79.1106 50.6049 81.3283 50.8835 83.4907 51.4407C85.6527 51.9979 87.7149 52.7892 89.6763 53.8149L79.5118 64.1132ZM108.334 50.6049C112.034 50.6049 115.511 51.307 118.765 52.7112C122.02 54.1158 124.851 56.0327 127.258 58.4626C129.666 60.892 131.572 63.7343 132.976 66.9888C134.38 70.243 135.083 73.6982 135.083 77.3539V104.103H121.842V77.3539C121.842 75.5263 121.485 73.7984 120.772 72.1714C120.059 70.5439 119.1 69.1285 117.896 67.925C116.693 66.7214 115.266 65.7625 113.616 65.0493C111.967 64.3361 110.206 63.9794 108.334 63.9794C106.506 63.9794 104.778 64.3361 103.151 65.0493C101.524 65.7625 100.108 66.7214 98.9046 67.925C97.701 69.1285 96.7422 70.5439 96.0289 72.1714C95.3157 73.7984 94.9591 75.5263 94.9591 77.3539C94.9591 79.1816 95.3157 80.9094 96.0289 82.5365C96.7422 84.164 97.701 85.5793 98.9046 86.7829C100.108 87.9865 101.524 88.9454 103.151 89.6586C104.778 90.3718 106.506 90.7284 108.334 90.7284H121.708L108.334 104.103C104.633 104.058 101.167 103.334 97.9351 101.93C94.7028 100.525 91.8828 98.6195 89.4757 96.2119C87.068 93.8047 85.1735 90.9847 83.7916 87.7524C82.4093 84.5206 81.7183 81.0543 81.7183 77.3539C81.7183 73.6982 82.4093 70.243 83.7916 66.9888C85.1735 63.7343 87.068 60.892 89.4757 58.4626C91.8828 56.0327 94.7028 54.1158 97.9351 52.7112C101.167 51.307 104.633 50.6049 108.334 50.6049ZM164.908 63.8457H158.087V104.103H144.846V63.8457H132.006V50.6049H178.148L164.908 63.8457ZM184.568 50.6049V104.103H171.328V63.712L184.568 50.6049ZM213.725 104.103C210.025 104.103 206.559 103.401 203.327 101.997C200.094 100.592 197.264 98.6752 194.834 96.2453C192.404 93.8159 190.487 90.9847 189.083 87.7524C187.678 84.5206 186.976 81.0543 186.976 77.3539C186.976 73.6536 187.678 70.165 189.083 66.8885C190.487 63.6117 192.404 60.7583 194.834 58.3288C197.264 55.8989 200.094 53.9821 203.327 52.5775C206.559 51.1733 210.025 50.4712 213.725 50.4712C217.336 50.4712 220.769 51.151 224.024 52.5106C227.278 53.8707 230.176 55.8209 232.717 58.3623L223.355 67.7244C222.062 66.4316 220.591 65.4616 218.941 64.8152C217.292 64.1689 215.553 63.8457 213.725 63.8457C211.897 63.8457 210.158 64.2023 208.509 64.9156C206.86 65.6288 205.422 66.5877 204.196 67.7912C202.97 68.9948 202 70.4213 201.287 72.0711C200.573 73.7204 200.217 75.4817 200.217 77.3539C200.217 79.2262 200.573 80.9874 201.287 82.6368C202 84.2866 202.97 85.7131 204.196 86.9166C205.422 88.1202 206.86 89.0791 208.509 89.7923C210.158 90.5056 211.897 90.8622 213.725 90.8622C215.553 90.8622 217.292 90.5167 218.941 89.8257C220.591 89.1348 222.062 88.1425 223.355 86.8498L232.717 96.2119C230.176 98.7532 227.278 100.703 224.024 102.064C220.769 103.423 217.336 104.103 213.725 104.103Z" fill="black"/>
<path d="M390.615 45.714C393.29 45.714 395.808 46.2266 398.171 47.2519C400.534 48.2776 402.585 49.6595 404.323 51.398C406.062 53.137 407.444 55.1764 408.469 57.5172C409.495 59.8574 410.008 62.3431 410.008 64.9731V99.212H396.767V64.9731C396.767 63.2792 396.165 61.8527 394.961 60.6933C393.758 59.5343 392.309 58.9548 390.615 58.9548C388.921 58.9548 387.472 59.5343 386.268 60.6933C385.064 61.8527 384.462 63.2792 384.462 64.9731V99.212H371.355V64.9731C371.355 63.2792 370.754 61.8527 369.55 60.6933C368.346 59.5343 366.897 58.9548 365.203 58.9548C363.509 58.9548 362.06 59.5343 360.857 60.6933C359.653 61.8527 359.051 63.2792 359.051 64.9731V99.212H345.943V64.9731C345.943 62.3431 346.456 59.8574 347.482 57.5172C348.507 55.1764 349.889 53.137 351.628 51.398C353.366 49.6595 355.406 48.2776 357.747 47.2519C360.087 46.2266 362.573 45.714 365.203 45.714C367.7 45.714 370.018 46.1486 372.158 47.0179C374.298 47.8871 376.215 49.0577 377.909 50.5288C379.648 49.0577 381.598 47.8871 383.76 47.0179C385.922 46.1486 388.207 45.714 390.615 45.714ZM429 65.6418H450.399C449.24 63.5467 447.623 61.8639 445.551 60.593C443.477 59.3225 441.17 58.6873 438.629 58.6873C436.757 58.6873 434.996 59.0439 433.346 59.7572C431.697 60.4704 430.248 61.4515 429 62.6997C427.751 63.9479 426.77 65.3966 426.057 67.0464C425.344 68.6958 424.987 70.457 424.987 72.3293C424.987 74.2015 425.344 75.9628 426.057 77.6121C426.77 79.2619 427.751 80.7107 429 81.9589C430.248 83.207 431.697 84.1882 433.346 84.9014C434.996 85.6146 436.757 85.9712 438.629 85.9712H459.36L445.985 99.212H438.629C434.929 99.212 431.441 98.5099 428.164 97.1058C424.887 95.7011 422.033 93.7843 419.604 91.3544C417.174 88.9249 415.257 86.0715 413.853 82.7947C412.448 79.5183 411.746 76.0296 411.746 72.3293C411.746 68.6289 412.448 65.1403 413.853 61.8639C415.257 58.587 417.174 55.7336 419.604 53.3042C422.033 50.8743 424.887 48.9574 428.164 47.5528C431.441 46.1486 434.929 45.4465 438.629 45.4465C442.329 45.4465 445.818 46.1486 449.094 47.5528C452.371 48.9574 455.225 50.8743 457.654 53.3042C460.084 55.7336 462.001 58.587 463.405 61.8639C464.81 65.1403 465.512 68.6289 465.512 72.3293V78.8826H442.374L429 65.6418ZM516.736 99.212H503.629V70.457C503.629 68.8518 503.328 67.3473 502.726 65.9431C502.125 64.5385 501.3 63.3238 500.252 62.2985C499.204 61.2728 497.979 60.4592 496.574 59.8574C495.17 59.2557 493.688 58.9548 492.127 58.9548C490.522 58.9548 489.018 59.2557 487.614 59.8574C486.208 60.4592 484.971 61.2728 483.902 62.2985C482.832 63.3238 481.996 64.5385 481.394 65.9431C480.792 67.3473 480.491 68.8518 480.491 70.457V99.212H467.384V70.457C467.384 67.0687 468.03 63.8698 469.323 60.8604C470.616 57.8515 472.388 55.221 474.64 52.9698C476.891 50.7182 479.51 48.9463 482.497 47.6531C485.484 46.3604 488.694 45.714 492.127 45.714C495.516 45.714 498.714 46.3604 501.723 47.6531C504.733 48.9463 507.341 50.7182 509.548 52.9698C511.754 55.221 513.504 57.8515 514.797 60.8604C516.09 63.8698 516.736 67.0687 516.736 70.457V99.212ZM546.829 58.9548H540.008V99.212H526.767V58.9548H513.928V45.714H560.07L546.829 58.9548ZM565.487 65.6418H586.886C585.727 63.5467 584.111 61.8639 582.038 60.593C579.964 59.3225 577.658 58.6873 575.116 58.6873C573.244 58.6873 571.483 59.0439 569.833 59.7572C568.184 60.4704 566.735 61.4515 565.487 62.6997C564.238 63.9479 563.257 65.3966 562.544 67.0464C561.831 68.6958 561.474 70.457 561.474 72.3293C561.474 74.2015 561.831 75.9628 562.544 77.6121C563.257 79.2619 564.238 80.7107 565.487 81.9589C566.735 83.207 568.184 84.1882 569.833 84.9014C571.483 85.6146 573.244 85.9712 575.116 85.9712H595.847L582.472 99.212H575.116C571.416 99.212 567.928 98.5099 564.651 97.1058C561.374 95.7011 558.521 93.7843 556.091 91.3544C553.661 88.9249 551.744 86.0715 550.34 82.7947C548.936 79.5183 548.234 76.0296 548.234 72.3293C548.234 68.6289 548.936 65.1403 550.34 61.8639C551.744 58.587 553.661 55.7336 556.091 53.3042C558.521 50.8743 561.374 48.9574 564.651 47.5528C567.928 46.1486 571.416 45.4465 575.116 45.4465C578.817 45.4465 582.305 46.1486 585.582 47.5528C588.858 48.9574 591.712 50.8743 594.141 53.3042C596.571 55.7336 598.488 58.587 599.893 61.8639C601.297 65.1403 601.999 68.6289 601.999 72.3293V78.8826H578.861L565.487 65.6418Z" fill="black"/>
<path fill-rule="evenodd" clip-rule="evenodd" d="M257.518 57.634H280.312C282.881 57.634 284.29 59.7343 283.445 62.3039L271.893 97.4167C271.048 99.9859 268.256 102.087 265.687 102.087H242.892C240.323 102.087 238.914 99.9859 239.759 97.4167L251.311 62.3039C252.156 59.7343 254.948 57.634 257.518 57.634Z" fill="black"/>
<path fill-rule="evenodd" clip-rule="evenodd" d="M275.25 5.16728C273.368 8.99301 251.879 49.1007 255.334 49.3194C296.915 51.9657 283.818 55.4897 303.927 97.4116C305.096 99.848 307.565 102.081 310.133 102.081H332.928C335.498 102.081 337.23 99.8503 336.061 97.4116L293.416 8.50452C286.748 -5.39934 277.317 0.964499 275.25 5.16728Z" fill="#289DB9"/>
</svg>
