<svg width="61" height="65" viewBox="0 0 61 65" fill="none" xmlns="http://www.w3.org/2000/svg">
<path fill-rule="evenodd" clip-rule="evenodd" d="M11.3318 36.2744H25.6781C27.2954 36.2744 28.1821 37.5964 27.6499 39.2137L20.3794 61.3133C19.8473 62.9306 18.09 64.2526 16.4735 64.2526H2.12639C0.509114 64.2526 -0.377605 62.9306 0.15459 61.3133L7.42504 39.2137C7.95724 37.5964 9.71448 36.2744 11.3318 36.2744Z" fill="white"/>
<path fill-rule="evenodd" clip-rule="evenodd" d="M22.4915 3.25236C21.3072 5.66019 7.78214 30.9036 9.95696 31.0413C36.128 32.707 27.8848 34.9249 40.5415 61.3104C41.2767 62.8438 42.8309 64.2496 44.4474 64.2496H58.7946C60.4118 64.2496 61.5016 62.8453 60.7664 61.3104L33.9255 5.35257C29.7289 -3.39819 23.7927 0.606929 22.4915 3.25236Z" fill="#289DB9"/>
</svg>
